<svg width="24" height="24" viewBox="0 0 24 24" fill="none" xmlns="http://www.w3.org/2000/svg">
<path fill-rule="evenodd" clip-rule="evenodd" d="M12 1a1 1 0 011 1v4a1 1 0 11-2 0V2a1 1 0 011-1zM12 17a1 1 0 011 1v4a1 1 0 11-2 0v-4a1 1 0 011-1zM4.223 4.223a1 1 0 011.414 0l2.83 2.83a1 1 0 01-1.414 1.414l-2.83-2.83a1 1 0 010-1.414zM15.533 15.533a1 1 0 011.414 0l2.83 2.83a1 1 0 01-1.414 1.414l-2.83-2.83a1 1 0 010-1.414zM1 12a1 1 0 011-1h4a1 1 0 110 2H2a1 1 0 01-1-1zM17 12a1 1 0 011-1h4a1 1 0 110 2h-4a1 1 0 01-1-1zM8.467 15.533a1 1 0 010 1.414l-2.83 2.83a1 1 0 01-1.414-1.414l2.83-2.83a1 1 0 011.414 0zM19.777 4.223a1 1 0 010 1.414l-2.83 2.83a1 1 0 11-1.414-1.414l2.83-2.83a1 1 0 011.414 0z" fill="#FFF"></path>
</svg>
