<svg width="64" height="64" viewBox="0 0 64 64" fill="none" xmlns="http://www.w3.org/2000/svg">
<path d="M64 32C64 14.3269 49.6731 0 32 0C14.3269 0 0 14.3269 0 32C0 49.6731 14.3269 64 32 64C49.6731 64 64 49.6731 64 32Z" fill="#1C1E1F"/>
<g clip-path="url(#clip0_5105_1252)">
<path fill-rule="evenodd" clip-rule="evenodd" d="M18.4004 46.9164L22.3809 43.0327C27.1722 47.6492 34.912 47.6492 39.6665 43.0327L43.647 46.9164C36.718 53.6945 25.3662 53.6945 18.4004 46.9164ZM40.7353 21.6725C42.2096 23.5411 43.0942 25.9592 43.0942 28.817C43.0942 36.0714 37.3446 40.5047 31.0053 40.5047C24.5923 40.5047 19.0638 36.0714 19.0638 28.927C19.0638 28.2308 19.1007 27.5713 19.2112 26.8752C19.4324 25.5929 19.8378 24.3838 20.4275 23.248C21.0172 22.1855 21.7543 21.2329 22.6757 20.4268C23.5603 19.6208 24.5554 18.9613 25.6611 18.4484C26.7668 17.9354 27.9462 17.569 29.1624 17.3858C30.6367 17.166 32.2584 17.2393 33.8432 17.2393C34.5066 17.2393 35.0963 17.2759 35.7597 17.166C36.7549 17.0195 37.6026 16.5798 38.3028 15.8837C39.3348 14.8578 39.8508 13.4289 39.8508 12H45.6004C45.6004 16.0669 43.647 19.6574 40.7353 21.6725ZM36.9023 28.8903C36.9023 25.3364 34.7278 22.5519 31.1527 22.5519C27.5776 22.5519 25.182 25.3364 25.182 28.8903C25.182 32.4442 27.5776 35.2288 31.1527 35.2288C34.7278 35.2288 36.9023 32.4442 36.9023 28.8903Z" fill="white"/>
</g>
<defs>
<clipPath id="clip0_5105_1252">
<rect width="27.2" height="40" fill="white" transform="translate(18.4004 12)"/>
</clipPath>
</defs>
</svg>
